<mxfile host="Electron" modified="2024-01-08T16:16:43.997Z" agent="Mozilla/5.0 (Windows NT 10.0; Win64; x64) AppleWebKit/537.36 (KHTML, like Gecko) draw.io/22.1.16 Chrome/120.0.6099.109 Electron/28.1.0 Safari/537.36" etag="12er4VnCCjKQrRiLbhF6" version="22.1.16" type="device">
  <diagram name="Page-1" id="QMnDTYhlb8s9HRZRu8lS">
    <mxGraphModel dx="1434" dy="836" grid="1" gridSize="10" guides="1" tooltips="1" connect="1" arrows="1" fold="1" page="1" pageScale="1" pageWidth="1654" pageHeight="2336" math="0" shadow="0">
      <root>
        <mxCell id="0" />
        <mxCell id="1" parent="0" />
        <mxCell id="M0tVn1bA8UuuEmm1kQKi-35" style="edgeStyle=orthogonalEdgeStyle;rounded=0;orthogonalLoop=1;jettySize=auto;html=1;" edge="1" parent="1" source="M0tVn1bA8UuuEmm1kQKi-1">
          <mxGeometry relative="1" as="geometry">
            <mxPoint x="335.5" y="840.5000000000002" as="targetPoint" />
          </mxGeometry>
        </mxCell>
        <mxCell id="M0tVn1bA8UuuEmm1kQKi-1" value="&lt;b&gt;User&lt;/b&gt;" style="points=[[0.35,0,0],[0.98,0.51,0],[1,0.71,0],[0.67,1,0],[0,0.795,0],[0,0.65,0]];verticalLabelPosition=bottom;sketch=0;html=1;verticalAlign=top;aspect=fixed;align=center;pointerEvents=1;shape=mxgraph.cisco19.user;fillColor=#005073;strokeColor=none;" vertex="1" parent="1">
          <mxGeometry x="135.5" y="805.5" width="70" height="70" as="geometry" />
        </mxCell>
        <mxCell id="M0tVn1bA8UuuEmm1kQKi-61" style="edgeStyle=orthogonalEdgeStyle;rounded=0;orthogonalLoop=1;jettySize=auto;html=1;" edge="1" parent="1" source="M0tVn1bA8UuuEmm1kQKi-3">
          <mxGeometry relative="1" as="geometry">
            <mxPoint x="618.25" y="920" as="targetPoint" />
          </mxGeometry>
        </mxCell>
        <mxCell id="M0tVn1bA8UuuEmm1kQKi-3" value="&lt;b&gt;Load Balance&lt;/b&gt;" style="outlineConnect=0;dashed=0;verticalLabelPosition=bottom;verticalAlign=top;align=center;html=1;shape=mxgraph.aws3.application_load_balancer;fillColor=#F58536;gradientColor=none;" vertex="1" parent="1">
          <mxGeometry x="521" y="796.75" width="69" height="72" as="geometry" />
        </mxCell>
        <mxCell id="M0tVn1bA8UuuEmm1kQKi-13" value="&lt;b&gt;DR DB&lt;/b&gt;" style="image;aspect=fixed;html=1;points=[];align=center;fontSize=12;image=img/lib/azure2/databases/Azure_Database_PostgreSQL_Server.svg;" vertex="1" parent="1">
          <mxGeometry x="1130" y="930" width="48" height="64" as="geometry" />
        </mxCell>
        <mxCell id="M0tVn1bA8UuuEmm1kQKi-30" style="edgeStyle=orthogonalEdgeStyle;rounded=0;orthogonalLoop=1;jettySize=auto;html=1;" edge="1" parent="1">
          <mxGeometry relative="1" as="geometry">
            <mxPoint x="410" y="1492.5" as="targetPoint" />
            <mxPoint x="324.99999459517835" y="1492.5172413793105" as="sourcePoint" />
          </mxGeometry>
        </mxCell>
        <mxCell id="M0tVn1bA8UuuEmm1kQKi-21" value="Commit" style="text;strokeColor=none;align=center;fillColor=none;html=1;verticalAlign=middle;whiteSpace=wrap;rounded=0;" vertex="1" parent="1">
          <mxGeometry x="340" y="1465" width="60" height="30" as="geometry" />
        </mxCell>
        <mxCell id="M0tVn1bA8UuuEmm1kQKi-31" style="edgeStyle=orthogonalEdgeStyle;rounded=0;orthogonalLoop=1;jettySize=auto;html=1;" edge="1" parent="1" source="M0tVn1bA8UuuEmm1kQKi-23">
          <mxGeometry relative="1" as="geometry">
            <mxPoint x="490" y="1495" as="targetPoint" />
          </mxGeometry>
        </mxCell>
        <mxCell id="M0tVn1bA8UuuEmm1kQKi-43" style="edgeStyle=orthogonalEdgeStyle;rounded=0;orthogonalLoop=1;jettySize=auto;html=1;entryX=0;entryY=0.423;entryDx=0;entryDy=0;entryPerimeter=0;" edge="1" parent="1" source="M0tVn1bA8UuuEmm1kQKi-23" target="M0tVn1bA8UuuEmm1kQKi-26">
          <mxGeometry relative="1" as="geometry">
            <mxPoint x="750" y="1494.9999999999998" as="targetPoint" />
          </mxGeometry>
        </mxCell>
        <mxCell id="M0tVn1bA8UuuEmm1kQKi-23" value="Jenkins" style="shape=image;verticalLabelPosition=bottom;labelBackgroundColor=default;verticalAlign=top;aspect=fixed;imageAspect=0;image=https://upload.wikimedia.org/wikipedia/commons/thumb/e/e9/Jenkins_logo.svg/1200px-Jenkins_logo.svg.png;fontStyle=1" vertex="1" parent="1">
          <mxGeometry x="590" y="1467.3799999999999" width="40" height="55.24" as="geometry" />
        </mxCell>
        <mxCell id="M0tVn1bA8UuuEmm1kQKi-25" value="Fetch Commit" style="text;strokeColor=none;align=center;fillColor=none;html=1;verticalAlign=middle;whiteSpace=wrap;rounded=0;" vertex="1" parent="1">
          <mxGeometry x="520.5" y="1460" width="60" height="30" as="geometry" />
        </mxCell>
        <mxCell id="M0tVn1bA8UuuEmm1kQKi-49" style="edgeStyle=orthogonalEdgeStyle;rounded=0;orthogonalLoop=1;jettySize=auto;html=1;" edge="1" parent="1" source="M0tVn1bA8UuuEmm1kQKi-26">
          <mxGeometry relative="1" as="geometry">
            <mxPoint x="940" y="1498.6799999999998" as="targetPoint" />
          </mxGeometry>
        </mxCell>
        <mxCell id="M0tVn1bA8UuuEmm1kQKi-26" value="&lt;b&gt;Build&lt;/b&gt;" style="image;sketch=0;aspect=fixed;html=1;points=[];align=center;fontSize=12;image=img/lib/mscae/Docker.svg;" vertex="1" parent="1">
          <mxGeometry x="760" y="1474.7399999999998" width="58.39" height="47.88" as="geometry" />
        </mxCell>
        <mxCell id="M0tVn1bA8UuuEmm1kQKi-28" value="Build Image" style="text;strokeColor=none;align=center;fillColor=none;html=1;verticalAlign=middle;whiteSpace=wrap;rounded=0;" vertex="1" parent="1">
          <mxGeometry x="652.75" y="1468.69" width="74.5" height="22.62" as="geometry" />
        </mxCell>
        <mxCell id="M0tVn1bA8UuuEmm1kQKi-33" value="&lt;div style=&quot;&quot;&gt;&lt;b style=&quot;background-color: initial;&quot;&gt;ECR&lt;/b&gt;&lt;/div&gt;" style="sketch=0;points=[[0,0,0],[0.25,0,0],[0.5,0,0],[0.75,0,0],[1,0,0],[0,1,0],[0.25,1,0],[0.5,1,0],[0.75,1,0],[1,1,0],[0,0.25,0],[0,0.5,0],[0,0.75,0],[1,0.25,0],[1,0.5,0],[1,0.75,0]];outlineConnect=0;fontColor=#232F3E;fillColor=#ED7100;strokeColor=#ffffff;dashed=0;verticalLabelPosition=bottom;verticalAlign=top;align=center;html=1;fontSize=12;fontStyle=0;aspect=fixed;shape=mxgraph.aws4.resourceIcon;resIcon=mxgraph.aws4.ecr;" vertex="1" parent="1">
          <mxGeometry x="950" y="1453.12" width="67" height="67" as="geometry" />
        </mxCell>
        <mxCell id="M0tVn1bA8UuuEmm1kQKi-36" value="&lt;b&gt;Developer&lt;/b&gt;" style="sketch=0;pointerEvents=1;shadow=0;dashed=0;html=1;strokeColor=none;fillColor=#505050;labelPosition=center;verticalLabelPosition=bottom;verticalAlign=top;outlineConnect=0;align=center;shape=mxgraph.office.users.users;" vertex="1" parent="1">
          <mxGeometry x="270" y="1465.12" width="50" height="55" as="geometry" />
        </mxCell>
        <mxCell id="M0tVn1bA8UuuEmm1kQKi-37" value="&lt;b&gt;Github&lt;/b&gt;" style="dashed=0;outlineConnect=0;html=1;align=center;labelPosition=center;verticalLabelPosition=bottom;verticalAlign=top;shape=mxgraph.weblogos.github" vertex="1" parent="1">
          <mxGeometry x="420" y="1460" width="60" height="60" as="geometry" />
        </mxCell>
        <mxCell id="M0tVn1bA8UuuEmm1kQKi-38" value="API Request" style="text;strokeColor=none;align=center;fillColor=none;html=1;verticalAlign=middle;whiteSpace=wrap;rounded=0;" vertex="1" parent="1">
          <mxGeometry x="225.5" y="805.5" width="60" height="30" as="geometry" />
        </mxCell>
        <mxCell id="M0tVn1bA8UuuEmm1kQKi-41" style="edgeStyle=orthogonalEdgeStyle;rounded=0;orthogonalLoop=1;jettySize=auto;html=1;" edge="1" parent="1" source="M0tVn1bA8UuuEmm1kQKi-39">
          <mxGeometry relative="1" as="geometry">
            <mxPoint x="515.5" y="832.75" as="targetPoint" />
          </mxGeometry>
        </mxCell>
        <mxCell id="M0tVn1bA8UuuEmm1kQKi-39" value="&lt;b&gt;AWS Route S3&lt;/b&gt;" style="outlineConnect=0;dashed=0;verticalLabelPosition=bottom;verticalAlign=top;align=center;html=1;shape=mxgraph.aws3.route_53;fillColor=#F58536;gradientColor=none;" vertex="1" parent="1">
          <mxGeometry x="335.5" y="790" width="70.5" height="85.5" as="geometry" />
        </mxCell>
        <mxCell id="M0tVn1bA8UuuEmm1kQKi-42" value="Maven Build" style="text;strokeColor=none;align=center;fillColor=none;html=1;verticalAlign=middle;whiteSpace=wrap;rounded=0;" vertex="1" parent="1">
          <mxGeometry x="630" y="1500" width="120" height="20" as="geometry" />
        </mxCell>
        <mxCell id="M0tVn1bA8UuuEmm1kQKi-44" value="Push Image to ECR" style="text;strokeColor=none;align=center;fillColor=none;html=1;verticalAlign=middle;whiteSpace=wrap;rounded=0;rotation=0;" vertex="1" parent="1">
          <mxGeometry x="840" y="1465" width="74.5" height="30" as="geometry" />
        </mxCell>
        <mxCell id="M0tVn1bA8UuuEmm1kQKi-47" value="" style="endArrow=none;dashed=1;html=1;rounded=0;strokeWidth=2;" edge="1" parent="1">
          <mxGeometry width="50" height="50" relative="1" as="geometry">
            <mxPoint x="468.75" y="1200" as="sourcePoint" />
            <mxPoint x="468.75" y="920" as="targetPoint" />
          </mxGeometry>
        </mxCell>
        <mxCell id="M0tVn1bA8UuuEmm1kQKi-48" value="" style="endArrow=none;dashed=1;html=1;rounded=0;strokeWidth=2;" edge="1" parent="1">
          <mxGeometry width="50" height="50" relative="1" as="geometry">
            <mxPoint x="468.75" y="920" as="sourcePoint" />
            <mxPoint x="748.75" y="920" as="targetPoint" />
          </mxGeometry>
        </mxCell>
        <mxCell id="M0tVn1bA8UuuEmm1kQKi-59" style="edgeStyle=orthogonalEdgeStyle;rounded=0;orthogonalLoop=1;jettySize=auto;html=1;" edge="1" parent="1" source="M0tVn1bA8UuuEmm1kQKi-50">
          <mxGeometry relative="1" as="geometry">
            <mxPoint x="609.9949999999999" y="1200" as="targetPoint" />
          </mxGeometry>
        </mxCell>
        <mxCell id="M0tVn1bA8UuuEmm1kQKi-50" value="" style="outlineConnect=0;dashed=0;verticalLabelPosition=bottom;verticalAlign=top;align=center;html=1;shape=mxgraph.aws3.codedeploy;fillColor=#759C3E;gradientColor=none;" vertex="1" parent="1">
          <mxGeometry x="578.12" y="1310" width="63.75" height="70" as="geometry" />
        </mxCell>
        <mxCell id="M0tVn1bA8UuuEmm1kQKi-51" style="edgeStyle=orthogonalEdgeStyle;rounded=0;orthogonalLoop=1;jettySize=auto;html=1;entryX=0.5;entryY=1;entryDx=0;entryDy=0;entryPerimeter=0;" edge="1" parent="1" source="M0tVn1bA8UuuEmm1kQKi-23" target="M0tVn1bA8UuuEmm1kQKi-50">
          <mxGeometry relative="1" as="geometry" />
        </mxCell>
        <mxCell id="M0tVn1bA8UuuEmm1kQKi-52" value="AWS Deploy" style="text;strokeColor=none;align=center;fillColor=none;html=1;verticalAlign=middle;whiteSpace=wrap;rounded=0;" vertex="1" parent="1">
          <mxGeometry x="640" y="1378" width="74.5" height="22.62" as="geometry" />
        </mxCell>
        <mxCell id="M0tVn1bA8UuuEmm1kQKi-53" value="" style="endArrow=none;dashed=1;html=1;rounded=0;strokeWidth=2;" edge="1" parent="1">
          <mxGeometry width="50" height="50" relative="1" as="geometry">
            <mxPoint x="468.75" y="1200" as="sourcePoint" />
            <mxPoint x="748.75" y="1200" as="targetPoint" />
          </mxGeometry>
        </mxCell>
        <mxCell id="M0tVn1bA8UuuEmm1kQKi-54" value="" style="endArrow=none;dashed=1;html=1;rounded=0;strokeWidth=2;" edge="1" parent="1">
          <mxGeometry width="50" height="50" relative="1" as="geometry">
            <mxPoint x="748.75" y="1200" as="sourcePoint" />
            <mxPoint x="748.75" y="920" as="targetPoint" />
          </mxGeometry>
        </mxCell>
        <mxCell id="M0tVn1bA8UuuEmm1kQKi-60" value="" style="endArrow=classic;html=1;rounded=0;" edge="1" parent="1">
          <mxGeometry width="50" height="50" relative="1" as="geometry">
            <mxPoint x="750" y="1050" as="sourcePoint" />
            <mxPoint x="890" y="1050" as="targetPoint" />
          </mxGeometry>
        </mxCell>
        <mxCell id="M0tVn1bA8UuuEmm1kQKi-62" value="&lt;b&gt;CR DB&lt;/b&gt;" style="image;aspect=fixed;html=1;points=[];align=center;fontSize=12;image=img/lib/azure2/databases/Azure_Database_PostgreSQL_Server.svg;" vertex="1" parent="1">
          <mxGeometry x="1130" y="1110" width="48" height="64" as="geometry" />
        </mxCell>
        <mxCell id="M0tVn1bA8UuuEmm1kQKi-63" value="&lt;b&gt;Cluster&lt;/b&gt;" style="outlineConnect=0;dashed=0;verticalLabelPosition=bottom;verticalAlign=top;align=center;html=1;shape=mxgraph.aws3.emr_cluster;fillColor=#F58534;gradientColor=none;" vertex="1" parent="1">
          <mxGeometry x="890" y="1010" width="70" height="73" as="geometry" />
        </mxCell>
        <mxCell id="M0tVn1bA8UuuEmm1kQKi-72" value="" style="shape=partialRectangle;whiteSpace=wrap;html=1;bottom=1;right=1;left=1;top=0;fillColor=none;routingCenterX=-0.5;rotation=90;" vertex="1" parent="1">
          <mxGeometry x="1010" y="1024" width="180" height="60" as="geometry" />
        </mxCell>
        <mxCell id="M0tVn1bA8UuuEmm1kQKi-74" style="edgeStyle=orthogonalEdgeStyle;rounded=0;orthogonalLoop=1;jettySize=auto;html=1;entryX=0.459;entryY=1.045;entryDx=0;entryDy=0;entryPerimeter=0;" edge="1" parent="1" source="M0tVn1bA8UuuEmm1kQKi-63" target="M0tVn1bA8UuuEmm1kQKi-72">
          <mxGeometry relative="1" as="geometry" />
        </mxCell>
        <mxCell id="M0tVn1bA8UuuEmm1kQKi-79" style="edgeStyle=orthogonalEdgeStyle;rounded=0;orthogonalLoop=1;jettySize=auto;html=1;" edge="1" parent="1" source="M0tVn1bA8UuuEmm1kQKi-78">
          <mxGeometry relative="1" as="geometry">
            <mxPoint x="750" y="1050" as="targetPoint" />
          </mxGeometry>
        </mxCell>
        <mxCell id="M0tVn1bA8UuuEmm1kQKi-78" value="" style="shape=partialRectangle;whiteSpace=wrap;html=1;bottom=1;right=1;left=1;top=0;fillColor=none;routingCenterX=-0.5;rotation=-90;" vertex="1" parent="1">
          <mxGeometry x="591.93" y="1051.13" width="111" height="22.25" as="geometry" />
        </mxCell>
        <mxCell id="M0tVn1bA8UuuEmm1kQKi-80" value="" style="aspect=fixed;sketch=0;html=1;dashed=0;whitespace=wrap;fillColor=#2875E2;strokeColor=#ffffff;points=[[0.005,0.63,0],[0.1,0.2,0],[0.9,0.2,0],[0.5,0,0],[0.995,0.63,0],[0.72,0.99,0],[0.5,1,0],[0.28,0.99,0]];shape=mxgraph.kubernetes.icon2;prIcon=api" vertex="1" parent="1">
          <mxGeometry x="572.08" y="970" width="66.15" height="63.5" as="geometry" />
        </mxCell>
        <mxCell id="M0tVn1bA8UuuEmm1kQKi-81" value="" style="aspect=fixed;sketch=0;html=1;dashed=0;whitespace=wrap;fillColor=#2875E2;strokeColor=#ffffff;points=[[0.005,0.63,0],[0.1,0.2,0],[0.9,0.2,0],[0.5,0,0],[0.995,0.63,0],[0.72,0.99,0],[0.5,1,0],[0.28,0.99,0]];shape=mxgraph.kubernetes.icon2;kubernetesLabel=1;prIcon=api" vertex="1" parent="1">
          <mxGeometry x="571.5600000000001" y="1083" width="66.67" height="64" as="geometry" />
        </mxCell>
      </root>
    </mxGraphModel>
  </diagram>
</mxfile>
